<svg viewBox="0 0 1024 1024" class="icon" version="1.1" xmlns="http://www.w3.org/2000/svg" fill="#000000"><g id="SVGRepo_bgCarrier" stroke-width="0"></g><g id="SVGRepo_tracerCarrier" stroke-linecap="round" stroke-linejoin="round"></g><g id="SVGRepo_iconCarrier"><path d="M915.69853 488.16395a24.362327 24.362327 0 0 0-23.738781-1.082247s-120.096629 60.272034-126.017759 63.231062c-18.772937 0-36.402195-0.032764-53.461148-0.061433 0-10.056602-1.082247-21.513878-1.082247-21.513879 0-20.174636-9.163774-38.090582-23.419329-50.440686 45.249588-31.853072 75.03646-84.232998 75.03646-143.614251 0-96.993681-78.921081-175.881997-175.914761-175.881998-37.868399 0-72.237157 11.581167-101.19673 32.55341-29.148991-20.972243-63.390788-32.55341-100.877278-32.55341-96.963988 0-175.885069 78.888317-175.885069 175.881998 0 56.197994 26.987569 105.778617 68.164142 137.983905a68.554242 68.554242 0 0 0-28.574592 41.941415h-49.834546c-4.646392-1.717056-69.05697-25.96778-69.05697-25.96778-7.445694-2.832067-15.846673-1.782584-22.465068 2.802374a24.363351 24.363351 0 0 0-10.564449 20.079416v168.882717a24.466764 24.466764 0 0 0 10.564449 20.112179c6.555938 4.581887 14.956917 5.601677 22.465068 2.799303 0 0 65.110916-24.501576 69.310893-26.030237h46.650263v118.952949c0 37.168061 30.615195 67.463804 68.196906 67.463804h329.23647c37.614475 0 68.164142-30.295743 68.164141-67.463804v-63.771673h56.32598c8.911898 4.454925 124.235174 61.989089 124.235174 61.989089 7.576751 3.753564 16.547011 3.372678 23.738781-1.082247a24.504647 24.504647 0 0 0 11.584238-20.813541V508.944726a24.449358 24.449358 0 0 0-11.584238-20.780776z" fill="#27323A"></path><path d="M624.809637 493.892588c10.629977 0 37.708673 0 37.708673 34.844865v44.712049c0 13.46102 10.94943 24.407378 24.440143 24.407378l88.785192-0.253924c11.137825 0 28.069816-12.030653 102.659862-49.165949v184.601405c-37.360552-18.645976-94.001888-46.905211-94.001888-46.905211-3.438207-1.720127-7.638185-2.609884-11.457277-2.609884l-85.985889 0.065529c-13.490713 0-24.440143 10.945334-24.440143 24.440143v88.211816c0 10.244997-8.654903 18.583519-19.28488 18.583519H313.99696c-10.629977 0-19.317644-8.338522-19.317644-18.583519v-143.39514c0-13.493785-10.945334-24.440143-24.440143-24.440142h-77.519382c-2.926264 0-5.8556 1.273713-8.589374 2.290431 0 0-19.349385 7.257299-38.441774 14.44907v-98.332923c19.09239 7.191771 38.441775 14.477738 38.441774 14.477739 2.733774 1.01979 5.66311 2.196234 8.589374 2.196234h77.519382c13.493785 0 24.440143-10.945334 24.440143-24.440143v-10.310525c0-34.844865 35.78684-34.844865 46.412722-34.844866h283.717599z" fill="#79CCBF"></path><path d="M381.587726 461.306414c-68.418065-1.879853-123.5676-57.792183-123.5676-126.623898 0-70.040923 56.996624-127.001712 127.005807-127.001712 32.713136 0 61.099333 10.851137 84.392724 32.299486 7.002352 6.491433 16.80503 7.794839 25.206009 4.614651 0.061433 0 0.061433 0 0.126962-0.032764 2.098965-0.795559 3.880525-2.102037 5.728638-3.469947 0.827299-0.603068 1.779513-0.856992 2.545379-1.55733 22.850049-21.128898 51.170717-31.853072 84.076344-31.853072 70.008159 0 127.034476 56.960788 127.034476 127.001711 0 68.832739-59.763163 126.623898-123.600365 126.623899H381.587726z" fill="#F4CE73"></path><path d="M312.341338 333.283888c0 40.413778 32.905627 73.319404 73.384933 73.319404 40.413778 0 73.319404-32.905627 73.319404-73.319404 0-40.449614-32.905627-73.352169-73.319404-73.352168-40.479306 0-73.384933 32.902555-73.384933 73.352168z" fill="#27323A"></path><path d="M344.928536 333.283888c0-22.46814 18.329595-40.765994 40.797735-40.765994 22.465068 0 40.73323 18.296831 40.73323 40.765994 0 22.465068-18.268162 40.73323-40.73323 40.73323-22.46814 0-40.797735-18.268162-40.797735-40.73323z" fill="#FFFFFF"></path><path d="M514.477802 334.969203c0 40.413778 32.905627 73.319404 73.319405 73.319405 40.416849 0 73.319404-32.905627 73.319404-73.319405 0-40.446542-32.902555-73.352169-73.319404-73.352168-40.412754 0-73.319404 32.905627-73.319405 73.352168z" fill="#27323A"></path><path d="M547.065001 334.969203c0-22.465068 18.268162-40.765994 40.73323-40.765994 22.46814 0 40.73323 18.300926 40.733229 40.765994 0 22.46814-18.26509 40.73323-40.733229 40.73323-22.466092-0.001024-40.73323-18.26509-40.73323-40.73323z" fill="#FFFFFF"></path></g></svg>