<svg viewBox="0 0 1024 1024" class="icon" version="1.1" xmlns="http://www.w3.org/2000/svg" fill="#000000"><g id="SVGRepo_bgCarrier" stroke-width="0"></g><g id="SVGRepo_tracerCarrier" stroke-linecap="round" stroke-linejoin="round"></g><g id="SVGRepo_iconCarrier"><path d="M917.333333 704H106.666667a42.666667 42.666667 0 0 0-42.666667 42.666667v170.666666a42.666667 42.666667 0 0 0 42.666667 42.666667h810.666666a42.666667 42.666667 0 0 0 42.666667-42.666667v-170.666666a42.666667 42.666667 0 0 0-42.666667-42.666667z" fill="#444444"></path><path d="M682.666667 234.666667a21.333333 21.333333 0 0 1-21.333334-21.333334V106.666667H362.666667v106.666666a21.333333 21.333333 0 1 1-42.666667 0V85.333333a21.333333 21.333333 0 0 1 21.333333-21.333333h341.333334a21.333333 21.333333 0 0 1 21.333333 21.333333v128a21.333333 21.333333 0 0 1-21.333333 21.333334z" fill="#B3B3B3"></path><path d="M960 192H64a42.666667 42.666667 0 0 0-42.666667 42.666667v469.333333a42.666667 42.666667 0 0 0 42.666667 42.666667h896a42.666667 42.666667 0 0 0 42.666667-42.666667V234.666667a42.666667 42.666667 0 0 0-42.666667-42.666667z" fill="#636363"></path><path d="M597.333333 832h-170.666666a21.333333 21.333333 0 0 1-21.333334-21.333333v-128a21.333333 21.333333 0 0 1 21.333334-21.333334h170.666666a21.333333 21.333333 0 0 1 21.333334 21.333334v128a21.333333 21.333333 0 0 1-21.333334 21.333333z" fill="#EFD358"></path></g></svg>